<svg xmlns="http://www.w3.org/2000/svg" viewBox="0 0 1256.03 676.04"><defs><style>.cls-1{fill:#2d3142;}.cls-2,.cls-3{fill:#ea3f2d;}.cls-3{stroke:#fff;stroke-miterlimit:10;}</style></defs><g id="Layer_2" data-name="Layer 2"><g id="Layer_1-2" data-name="Layer 1"><path class="cls-1" d="M7.44,259.54H499.68l-.24,20H53.49A72.72,72.72,0,0,1,23,273C16.08,269.81,9.53,265.37,7.44,259.54Z" transform="translate(0 -26.8)"/><path class="cls-1" d="M533.44,259.54H763.68l-.11,17H555A22,22,0,0,1,540.72,271,20.3,20.3,0,0,1,533.44,259.54Z" transform="translate(0 -26.8)"/><path class="cls-1" d="M799.44,259.54h230.24l-.11,17H821A22,22,0,0,1,806.72,271,20.3,20.3,0,0,1,799.44,259.54Z" transform="translate(0 -26.8)"/><path class="cls-1" d="M1048.44,259.54h180.24l-.09,17H1065.3c-3.84,0-7.66-1.8-11.16-5.55A21.57,21.57,0,0,1,1048.44,259.54Z" transform="translate(0 -26.8)"/><rect class="cls-2" x="312.11" y="203.55" width="42.31" height="42.31" rx="12" transform="translate(256.5 -196.64) rotate(45)"/><rect class="cls-2" x="839.11" y="203.55" width="42.31" height="42.31" rx="12" transform="translate(410.86 -569.28) rotate(45)"/><path class="cls-1" d="M263.59,615.6a2.26,2.26,0,0,1-.42-1.25l-2-222.31-96-1-25-24,25-26h96l.86-61.5h-35v31H135.15l-41.47,57,41,53h57.15l.85,116S181.05,488.37,121.46,473a55.74,55.74,0,0,0-39.71,4.39C60.49,488.49,29.68,517.54,40.18,568c0,0,6.5,35.5,52.5,40.5,0,0,38.5,2.5,47.5-43.5,8.72-44.59-46.44-62.87-69.87-45.74a.27.27,0,0,1-.37-.39c4.85-5.42,19.9-19.46,47.24-21.87,33.69-3,69.34,31.36,71,74.79a1.9,1.9,0,0,1-1,1.75c-1.8,1-5.49,3.23-7,5.46-2.29,3.43,46,3,88,54C268.18,633,272.05,627.22,263.59,615.6ZM226.3,584.48a.19.19,0,0,1-.34.12c-1.61-2.06-8.85-8.51-16.78-10.56V422H226.3Z" transform="translate(0 -26.8)"/><path class="cls-1" d="M891.12,569a6.29,6.29,0,0,1-.94-2.52l-1-290h-30l-2,268.5c-2-2-5.44-1.93-5.44-1.93l.44-266.57h-12l-.69,259a4.05,4.05,0,0,1-.85,2.49c-1,1.35-3.35,3.65-8.46,7.06-9,6,3,0,13,4s33,18,51,36C894.18,585,895.18,578,891.12,569Z" transform="translate(0 -26.8)"/><path class="cls-1" d="M1173.12,612a6.29,6.29,0,0,1-.94-2.52l.5-333h-31l-2.5,311.5c-2-2-5.44-1.93-5.44-1.93l1.94-309.57h-12l-.5,29.69a41.92,41.92,0,0,1-.68,8.45c-10.32,49.36-48.25,96.75-52.3,101.46a.23.23,0,0,1-.4-.12c-8.62-43-65.12-139.48-65.12-139.48h-52.5l-2,277.5c-2-2-5.44-1.93-5.44-1.93l.44-275.57h-12l-.69,268a4.05,4.05,0,0,1-.85,2.49c-1,1.35-3.35,3.65-8.46,7.06-9,6,3,0,13,4s33,18,51,36c0,0,1-7-3.06-16a6.29,6.29,0,0,1-.94-2.52l1-273.94a.92.92,0,0,1,1.69-.51c10.78,16.36,70.37,108.06,86.05,160.85.27.12,4.27,4.12,4.27-23.88,0,0,33.65-45.2,46.28-79.48a.36.36,0,0,1,.7.13l-1.67,219.8a4.05,4.05,0,0,1-.85,2.49c-1,1.35-3.35,3.65-8.46,7.06-9,6,3,0,13,4s33,18,51,36C1176.18,628,1177.18,621,1173.12,612Z" transform="translate(0 -26.8)"/><path class="cls-1" d="M358.12,569a6.29,6.29,0,0,1-.94-2.52l-1.5-290-49.19,3v256a4.05,4.05,0,0,1-.85,2.49c-1,1.35-3.35,3.65-8.46,7.06-9,6,3,0,13,4s33,18,51,36C361.18,585,362.18,578,358.12,569Zm-33.94-24c-2-2-5.44-1.93-5.44-1.93V279.54h7.15Z" transform="translate(0 -26.8)"/><path class="cls-1" d="M790.32,564.11,788.18,403s-21-3-39-1c-49.46,5.49-78.6,32.35-82,35.64v-.08c4.29-5.21,48.38-58.88,56.35-69.07a1,1,0,0,1,1.75.35c3.11,10.19,12.34,14.7,20.53,16.67,6.43,1.55,16.53.68,22.6-1.94,18.52-8,22.1-24.69,21.85-27.92,0-.6-.12-1.47-.13-2.07-.81-42.6-45.17-38.42-66-22.58-19.8,15.08-53.39,75.46-57,82.76l.5-1.26-1.15-136H637.18l-2,268.5c-2-2-5.44-1.93-5.44-1.93l-.56-266.57H616.49V532.46a4.16,4.16,0,0,1-.88,2.56c-1.06,1.36-3.37,3.64-8.43,7-9,6,3,0,13,4s33,18,51,36c0,0,1-7-3.06-16a6.29,6.29,0,0,1-.94-2.52V458.46c25.75-34.65,74-34.42,74-34.42l1,112c-9,3-9,9-9,9,24-5,61,31,61,31C796.18,570,790.32,564.11,790.32,564.11ZM760.18,545c-2-2-5.44-1.93-5.44-1.93l.44-113.57,5-.5Z" transform="translate(0 -26.8)"/><path class="cls-2" d="M1252.53,372.39l-17.78-17.78a12,12,0,0,0-17,0L1200,372.39a12,12,0,0,0,0,17l17.78,17.78a12,12,0,0,0,17,0l17.78-17.78A12,12,0,0,0,1252.53,372.39Zm-25.85,22.15a14,14,0,1,1,14-14A14,14,0,0,1,1226.68,394.54Z" transform="translate(0 -26.8)"/><path class="cls-2" d="M1252.53,471.39l-17.78-17.78a12,12,0,0,0-17,0L1200,471.39a12,12,0,0,0,0,17l17.78,17.78a12,12,0,0,0,17,0l17.78-17.78A12,12,0,0,0,1252.53,471.39Zm-25.85,22.15a14,14,0,1,1,14-14A14,14,0,0,1,1226.68,493.54Z" transform="translate(0 -26.8)"/><path class="cls-3" d="M56.53,462.39,38.75,444.61a12,12,0,0,0-17,0L4,462.39a12,12,0,0,0,0,17l17.78,17.78a12,12,0,0,0,17,0l17.78-17.78A12,12,0,0,0,56.53,462.39ZM30.68,484.54a14,14,0,1,1,14-14A14,14,0,0,1,30.68,484.54Z" transform="translate(0 -26.8)"/><path class="cls-3" d="M57.53,363.39,39.75,345.61a12,12,0,0,0-17,0L5,363.39a12,12,0,0,0,0,17l17.78,17.78a12,12,0,0,0,17,0l17.78-17.78A12,12,0,0,0,57.53,363.39ZM31.68,385.54a14,14,0,1,1,14-14A14,14,0,0,1,31.68,385.54Z" transform="translate(0 -26.8)"/><path class="cls-1" d="M577.32,567.11,575.18,406s-21-3-39-1c-49.46,5.49-78.6,32.35-82,35.64v-.08c4.29-5.21,48.38-58.88,56.35-69.07a1,1,0,0,1,1.75.35c3.11,10.19,12.34,14.7,20.53,16.67,6.43,1.55,16.53.68,22.6-1.94,18.52-8,22.1-24.69,21.85-27.92,0-.6-.12-1.47-.13-2.07C576.32,314,532,318.2,511.18,334c-19.8,15.08-53.39,75.46-57,82.76l.5-1.26-1.15-136H423.89L422.18,545c-2-2-5.44-1.93-5.44-1.93V279.54H403.49V535.46a4.16,4.16,0,0,1-.88,2.56c-1.06,1.36-3.37,3.64-8.43,7-9,6,3,0,13,4s33,18,51,36c0,0,1-7-3.06-16a6.29,6.29,0,0,1-.94-2.52V461.46c25.75-34.65,74-34.42,74-34.42l1,112c-9,3-9,9-9,9,24-5,61,31,61,31C583.18,573,577.32,567.11,577.32,567.11ZM544.68,547c-2-2-5.44-1.93-5.44-1.93l.44-113.57,5-.5Z" transform="translate(0 -26.8)"/><path class="cls-1" d="M162.09,46V171.6h-18.4V46h-40V28.4h98.4V46Z" transform="translate(0 -26.8)"/><path class="cls-1" d="M218.09,28.4h18.4V73.6l-.8,13.6h.8a32.72,32.72,0,0,1,12.9-12,37,37,0,0,1,18.1-4.8q18,0,27.7,10.3t9.7,29.3v61.6h-18.4v-58q0-26.4-23.4-26.4-11.2,0-18.9,9.3a33,33,0,0,0-7.7,21.7v53.4h-18.4Z" transform="translate(0 -26.8)"/><path class="cls-1" d="M370.49,174.8q-21.6,0-35.6-14.8t-14-37.4q0-22.39,13.6-37.3t34.8-14.9q21.79,0,34.7,14.1t12.9,39.5l-.2,2h-77q.39,14.4,9.6,23.2a30.68,30.68,0,0,0,22,8.8q17.59,0,27.6-17.6l16.4,8A48.88,48.88,0,0,1,397,167.8,50.6,50.6,0,0,1,370.49,174.8Zm-29.4-64h56.2A24.43,24.43,0,0,0,389,93.9q-7.5-6.7-20.1-6.7A26.64,26.64,0,0,0,351,93.6,30.58,30.58,0,0,0,341.09,110.8Z" transform="translate(0 -26.8)"/><path class="cls-1" d="M521.69,46V171.6h-18.4V46h-40V28.4h98.4V46Z" transform="translate(0 -26.8)"/><path class="cls-1" d="M599.89,70.4q20.4,0,32.2,10.9t11.8,29.9v60.4h-17.6V158h-.8q-11.4,16.8-30.4,16.8-16.2,0-27.1-9.6a30.65,30.65,0,0,1-10.9-24q0-15.19,11.5-24.2t30.7-9q16.4,0,27,6v-4.2a21,21,0,0,0-7.6-16.3,26.1,26.1,0,0,0-17.8-6.7q-15.4,0-24.4,13l-16.2-10.2Q573.69,70.4,599.89,70.4Zm-23.8,71.2a14.69,14.69,0,0,0,6.1,12,22.43,22.43,0,0,0,14.3,4.8q11.6,0,20.7-8.6t9.1-20.2q-8.61-6.8-24-6.8-11.2,0-18.7,5.4T576.09,141.6Z" transform="translate(0 -26.8)"/><path class="cls-1" d="M738.69,144.4q0,12.79-11.2,21.6t-28.2,8.8a44.77,44.77,0,0,1-26-7.7,42.42,42.42,0,0,1-16-20.3l16.4-7a30.39,30.39,0,0,0,10.5,13.7,25.49,25.49,0,0,0,15.1,4.9q8.79,0,14.7-3.8t5.9-9q0-9.4-14.4-13.8l-16.8-4.2q-28.61-7.2-28.6-27.6,0-13.4,10.9-21.5t27.9-8.1a45.39,45.39,0,0,1,23.5,6.2,33.74,33.74,0,0,1,14.7,16.6l-16.4,6.8a20.66,20.66,0,0,0-9.1-9.7,28.57,28.57,0,0,0-14.1-3.5,23.65,23.65,0,0,0-12.9,3.6q-5.7,3.6-5.7,8.8,0,8.4,15.8,12l14.8,3.8Q738.68,122.2,738.69,144.4Z" transform="translate(0 -26.8)"/><path class="cls-1" d="M792.49,173.2q-12,0-19.9-7.4t-8.1-20.6V90.4h-17.2V73.6h17.2v-30h18.4v30h24V90.4h-24v48.8q0,9.81,3.8,13.3a12.37,12.37,0,0,0,8.6,3.5,18.72,18.72,0,0,0,4.3-.5,21.5,21.5,0,0,0,3.9-1.3l5.8,16.4A49.49,49.49,0,0,1,792.49,173.2Z" transform="translate(0 -26.8)"/><path class="cls-1" d="M867.49,174.8q-21.6,0-35.6-14.8t-14-37.4q0-22.39,13.6-37.3t34.8-14.9q21.8,0,34.7,14.1t12.9,39.5l-.2,2h-77q.39,14.4,9.6,23.2a30.68,30.68,0,0,0,22,8.8q17.6,0,27.6-17.6l16.4,8A48.88,48.88,0,0,1,894,167.8,50.6,50.6,0,0,1,867.49,174.8Zm-29.4-64h56.2A24.43,24.43,0,0,0,886,93.9q-7.5-6.7-20.1-6.7A26.64,26.64,0,0,0,848,93.6,30.58,30.58,0,0,0,838.09,110.8Z" transform="translate(0 -26.8)"/><path class="cls-1" d="M969.08,122.6q0-22.59,14.2-37.4,14.4-14.81,36.2-14.8t36,14.8q14.4,14.8,14.4,37.4,0,22.8-14.4,37.4-14.2,14.81-36,14.8T983.28,160Q969.08,145.2,969.08,122.6Zm18.4,0q0,15.79,9.2,25.6a31.42,31.42,0,0,0,45.6,0q9.2-9.8,9.2-25.6,0-15.6-9.2-25.4a31,31,0,0,0-45.6,0Q987.48,107,987.48,122.6Z" transform="translate(0 -26.8)"/><path class="cls-1" d="M1128.88,26.8q10,0,16.4,3.4l-5,16.2a23.82,23.82,0,0,0-10.8-2.4,14.38,14.38,0,0,0-11.1,4.7q-4.31,4.69-4.3,12.5V73.6h25.6V90.4h-25.6v81.2h-18.4V90.4h-18.4V73.6h18.4V59.4q0-14.59,9.3-23.6T1128.88,26.8Z" transform="translate(0 -26.8)"/><path class="cls-1" d="M122.52,687.72a26.44,26.44,0,0,1-18.62-44.8,25,25,0,0,1,18.62-7.56q11.34,0,18.41,8.19L136.31,648a17.1,17.1,0,0,0-13.79-6.51,18.92,18.92,0,0,0-13.93,5.6q-5.53,5.53-5.53,14.42T108.59,676a18.92,18.92,0,0,0,13.93,5.6q8.76,0,15.19-7.35l4.69,4.55a24.31,24.31,0,0,1-8.75,6.62A26.7,26.7,0,0,1,122.52,687.72Z" transform="translate(0 -26.8)"/><path class="cls-1" d="M177.89,686.6h-6.16v-4.76h-.28a11.44,11.44,0,0,1-4.51,4.2,13,13,0,0,1-6.34,1.68q-6.3,0-9.69-3.6t-3.4-10.26V652.3H154v21.14q.21,8.4,8.47,8.4a8.06,8.06,0,0,0,6.44-3.11,11.27,11.27,0,0,0,2.59-7.46v-19h6.44Z" transform="translate(0 -26.8)"/><path class="cls-1" d="M192.17,636.48V686.6h-6.44V636.48Z" transform="translate(0 -26.8)"/><path class="cls-1" d="M208.34,640.47a4.54,4.54,0,1,1-1.33-3.22A4.38,4.38,0,0,1,208.34,640.47ZM207,652.3v34.3h-6.44V652.3Z" transform="translate(0 -26.8)"/><path class="cls-1" d="M215.41,652.3h6.16v4.76h.28a11.44,11.44,0,0,1,4.51-4.2,13,13,0,0,1,6.34-1.68q6.3,0,9.69,3.61t3.4,10.25V686.6h-6.44V665.46q-.21-8.4-8.47-8.4a8,8,0,0,0-6.44,3.12,11.25,11.25,0,0,0-2.59,7.45v19h-6.44Z" transform="translate(0 -26.8)"/><path class="cls-1" d="M266,651.18q7.14,0,11.27,3.82t4.13,10.46V686.6h-6.16v-4.76H275a12.29,12.29,0,0,1-10.64,5.88,13.86,13.86,0,0,1-9.49-3.36A10.74,10.74,0,0,1,251,676a10.21,10.21,0,0,1,4-8.47q4-3.15,10.75-3.15a19,19,0,0,1,9.45,2.1V665a7.33,7.33,0,0,0-2.66-5.7,9.09,9.09,0,0,0-6.23-2.35,9.87,9.87,0,0,0-8.54,4.55l-5.67-3.57Q256.84,651.18,266,651.18Zm-8.33,24.92a5.15,5.15,0,0,0,2.13,4.2,7.89,7.89,0,0,0,5,1.68,10.24,10.24,0,0,0,7.24-3,9.41,9.41,0,0,0,3.19-7.07q-3-2.39-8.4-2.38a10.93,10.93,0,0,0-6.55,1.89A5.6,5.6,0,0,0,257.69,676.1Z" transform="translate(0 -26.8)"/><path class="cls-1" d="M295.14,686.6H288.7V652.3h6.16v5.6h.28a9.25,9.25,0,0,1,4-4.65,11.14,11.14,0,0,1,6-1.93,12.07,12.07,0,0,1,4.76.84l-2,6.23a10.64,10.64,0,0,0-3.78-.49,8.35,8.35,0,0,0-6.34,2.94,9.86,9.86,0,0,0-2.69,6.86Z" transform="translate(0 -26.8)"/><path class="cls-1" d="M345.47,652.3,324,701.72h-6.65l8-17.29L311.17,652.3h7l10.22,24.64h.14l9.94-24.64Z" transform="translate(0 -26.8)"/><path class="cls-1" d="M379.42,687.72a15.07,15.07,0,0,1-11.55-5.32,20,20,0,0,1,0-25.9,15.1,15.1,0,0,1,11.55-5.32,14.82,14.82,0,0,1,6.89,1.61,12.06,12.06,0,0,1,4.8,4.27h.28l-.28-4.76V636.48h6.44V686.6h-6.16v-4.76h-.28a12.06,12.06,0,0,1-4.8,4.27A14.82,14.82,0,0,1,379.42,687.72Zm1.05-5.88a9.86,9.86,0,0,0,7.77-3.43,14.22,14.22,0,0,0,0-17.85,9.94,9.94,0,0,0-7.77-3.5,10.05,10.05,0,0,0-7.77,3.5,12.79,12.79,0,0,0-3.15,8.89,12.63,12.63,0,0,0,3.15,8.89A10.05,10.05,0,0,0,380.47,681.84Z" transform="translate(0 -26.8)"/><path class="cls-1" d="M420.44,687.72A16.37,16.37,0,0,1,408,682.54a18.28,18.28,0,0,1-4.9-13.09,18.57,18.57,0,0,1,4.76-13.05A15.74,15.74,0,0,1,420,651.18q7.62,0,12.14,4.94t4.52,13.82l-.07.7H409.66a11.14,11.14,0,0,0,3.36,8.12,10.75,10.75,0,0,0,7.7,3.08q6.15,0,9.66-6.16l5.74,2.8a17.06,17.06,0,0,1-6.41,6.79A17.74,17.74,0,0,1,420.44,687.72Zm-10.29-22.4h19.67a8.54,8.54,0,0,0-2.91-5.91,10.13,10.13,0,0,0-7-2.35,9.36,9.36,0,0,0-6.27,2.24A10.68,10.68,0,0,0,410.15,665.32Z" transform="translate(0 -26.8)"/><path class="cls-1" d="M449,636.48V686.6h-6.44V636.48Z" transform="translate(0 -26.8)"/><path class="cls-1" d="M465.17,640.47a4.54,4.54,0,0,1-4.56,4.55,4.55,4.55,0,0,1,0-9.1,4.54,4.54,0,0,1,4.56,4.55Zm-1.33,11.83v34.3H457.4V652.3Z" transform="translate(0 -26.8)"/><path class="cls-1" d="M487.07,702.84a19.06,19.06,0,0,1-5.38-.73A17.41,17.41,0,0,1,477.1,700a14.67,14.67,0,0,1-3.53-3.15,13.45,13.45,0,0,1-2.25-4.06l6.1-2.52a9.58,9.58,0,0,0,3.63,4.83,10.25,10.25,0,0,0,6,1.82q5.25,0,8.2-3.15t2.93-8.68v-3.29h-.27a12.72,12.72,0,0,1-4.94,4.31,14.77,14.77,0,0,1-6.76,1.57,15.14,15.14,0,0,1-11.54-5.25,19,19,0,0,1-4.76-13,18.7,18.7,0,0,1,4.76-13,15.08,15.08,0,0,1,11.54-5.32,14.78,14.78,0,0,1,6.76,1.58,12.69,12.69,0,0,1,4.94,4.3h.27V652.3h6.16v32.83q0,8.26-4.68,13T487.07,702.84Zm.21-21a9.83,9.83,0,0,0,7.77-3.43,14.22,14.22,0,0,0,0-17.85,9.91,9.91,0,0,0-7.77-3.5,10,10,0,0,0-7.76,3.5,12.79,12.79,0,0,0-3.16,8.89,12.64,12.64,0,0,0,3.16,8.89A10,10,0,0,0,487.28,681.84Z" transform="translate(0 -26.8)"/><path class="cls-1" d="M512.2,636.48h6.44V652.3l-.28,4.76h.28a11.47,11.47,0,0,1,4.52-4.2,12.93,12.93,0,0,1,6.33-1.68q6.3,0,9.7,3.61T542.58,665V686.6h-6.44V666.3q0-9.24-8.19-9.24a8.29,8.29,0,0,0-6.61,3.26,11.53,11.53,0,0,0-2.7,7.59V686.6H512.2Z" transform="translate(0 -26.8)"/><path class="cls-1" d="M562,687.16a9.76,9.76,0,0,1-7-2.59,9.64,9.64,0,0,1-2.84-7.21V658.18h-6V652.3h6V641.8h6.44v10.5H567v5.88h-8.4v17.08c0,2.29.45,3.84,1.33,4.66a4.36,4.36,0,0,0,3,1.22,6.85,6.85,0,0,0,1.51-.17,7.76,7.76,0,0,0,1.36-.46l2,5.74A17.21,17.21,0,0,1,562,687.16Z" transform="translate(0 -26.8)"/><path class="cls-1" d="M603,635.92a12.2,12.2,0,0,1,5.74,1.19L607,642.78a8.34,8.34,0,0,0-3.78-.84,5,5,0,0,0-3.88,1.65,6.18,6.18,0,0,0-1.51,4.37v4.34h9v5.88h-9V686.6h-6.44V658.18h-6.44V652.3h6.44v-5a11,11,0,0,1,3.26-8.26A11.53,11.53,0,0,1,603,635.92Z" transform="translate(0 -26.8)"/><path class="cls-1" d="M619.37,686.6h-6.44V652.3h6.16v5.6h.28a9.32,9.32,0,0,1,4-4.65,11.11,11.11,0,0,1,6-1.93,12,12,0,0,1,4.76.84l-2,6.23a10.57,10.57,0,0,0-3.78-.49,8.33,8.33,0,0,0-6.33,2.94,9.83,9.83,0,0,0-2.7,6.86Z" transform="translate(0 -26.8)"/><path class="cls-1" d="M634.28,669.45a18.16,18.16,0,0,1,5-13.09,17,17,0,0,1,12.67-5.18,16.72,16.72,0,0,1,12.6,5.18,19.52,19.52,0,0,1,0,26.18,16.68,16.68,0,0,1-12.6,5.18,16.91,16.91,0,0,1-12.67-5.18A18.16,18.16,0,0,1,634.28,669.45Zm6.44,0a12.55,12.55,0,0,0,3.22,9,11,11,0,0,0,16,0,14,14,0,0,0,0-17.85,10.85,10.85,0,0,0-16,0A12.46,12.46,0,0,0,640.72,669.45Z" transform="translate(0 -26.8)"/><path class="cls-1" d="M681.18,686.6h-6.44V652.3h6.16v4.76h.28a11.47,11.47,0,0,1,4.52-4.2,12.6,12.6,0,0,1,12.7.07,10.28,10.28,0,0,1,4.2,4.83,13.4,13.4,0,0,1,11.83-6.58q6,0,9.17,3.64t3.22,10.36V686.6h-6.44V666.16q0-4.83-1.75-7t-5.88-2.14a7.7,7.7,0,0,0-6.23,3.15,11.51,11.51,0,0,0-2.52,7.42v19h-6.44V666.16q0-4.83-1.75-7t-5.88-2.14a7.7,7.7,0,0,0-6.23,3.15,11.51,11.51,0,0,0-2.52,7.42Z" transform="translate(0 -26.8)"/><path class="cls-1" d="M763.36,687.16a9.76,9.76,0,0,1-7-2.59,9.6,9.6,0,0,1-2.84-7.21V658.18h-6V652.3h6V641.8H760v10.5h8.4v5.88H760v17.08q0,3.43,1.33,4.66a4.36,4.36,0,0,0,3,1.22,6.92,6.92,0,0,0,1.51-.17,7.76,7.76,0,0,0,1.36-.46l2,5.74A17.21,17.21,0,0,1,763.36,687.16Z" transform="translate(0 -26.8)"/><path class="cls-1" d="M774.91,636.48h6.44V652.3l-.28,4.76h.28a11.44,11.44,0,0,1,4.51-4.2,12.94,12.94,0,0,1,6.34-1.68q6.3,0,9.69,3.61t3.4,10.25V686.6h-6.44V666.3q0-9.24-8.19-9.24a8.29,8.29,0,0,0-6.62,3.26,11.57,11.57,0,0,0-2.69,7.59V686.6h-6.44Z" transform="translate(0 -26.8)"/><path class="cls-1" d="M828.25,687.72a16.37,16.37,0,0,1-12.46-5.18,18.28,18.28,0,0,1-4.9-13.09,18.57,18.57,0,0,1,4.76-13.05,15.74,15.74,0,0,1,12.18-5.22q7.62,0,12.14,4.94t4.52,13.82l-.07.7H817.47a11.14,11.14,0,0,0,3.36,8.12,10.75,10.75,0,0,0,7.7,3.08q6.15,0,9.66-6.16l5.74,2.8a17.06,17.06,0,0,1-6.41,6.79A17.74,17.74,0,0,1,828.25,687.72ZM818,665.32h19.67a8.54,8.54,0,0,0-2.91-5.91,10.13,10.13,0,0,0-7-2.35,9.36,9.36,0,0,0-6.27,2.24A10.68,10.68,0,0,0,818,665.32Z" transform="translate(0 -26.8)"/><path class="cls-1" d="M872.21,686.6h-6.44V652.3h6.16v4.76h.28a11.44,11.44,0,0,1,4.51-4.2,12.62,12.62,0,0,1,12.71.07,10.39,10.39,0,0,1,4.2,4.83,13.39,13.39,0,0,1,11.83-6.58q5.94,0,9.17,3.64t3.22,10.36V686.6h-6.44V666.16c0-3.22-.59-5.54-1.75-7s-3.13-2.14-5.88-2.14a7.68,7.68,0,0,0-6.23,3.15,11.51,11.51,0,0,0-2.52,7.42v19h-6.44V666.16c0-3.22-.59-5.54-1.75-7s-3.13-2.14-5.88-2.14a7.68,7.68,0,0,0-6.23,3.15,11.51,11.51,0,0,0-2.52,7.42Z" transform="translate(0 -26.8)"/><path class="cls-1" d="M923.45,669.45a18.12,18.12,0,0,1,5-13.09,17,17,0,0,1,12.67-5.18,16.75,16.75,0,0,1,12.6,5.18,19.52,19.52,0,0,1,0,26.18,16.71,16.71,0,0,1-12.6,5.18,16.91,16.91,0,0,1-12.67-5.18A18.12,18.12,0,0,1,923.45,669.45Zm6.44,0a12.55,12.55,0,0,0,3.22,9,11,11,0,0,0,16,0,14,14,0,0,0,0-17.85,10.85,10.85,0,0,0-16,0A12.46,12.46,0,0,0,929.89,669.45Z" transform="translate(0 -26.8)"/><path class="cls-1" d="M994.36,686.6H988.2v-4.76h-.28a11.47,11.47,0,0,1-4.52,4.2,12.93,12.93,0,0,1-6.33,1.68q-6.3,0-9.7-3.6T964,673.86V652.3h6.44v21.14q.21,8.4,8.47,8.4a8.08,8.08,0,0,0,6.44-3.11,11.33,11.33,0,0,0,2.59-7.46v-19h6.44Z" transform="translate(0 -26.8)"/><path class="cls-1" d="M1002.2,652.3h6.16v4.76h.28a11.44,11.44,0,0,1,4.51-4.2,12.94,12.94,0,0,1,6.34-1.68q6.3,0,9.69,3.61t3.4,10.25V686.6h-6.44V665.46q-.21-8.4-8.47-8.4a8,8,0,0,0-6.44,3.12,11.25,11.25,0,0,0-2.59,7.45v19h-6.44Z" transform="translate(0 -26.8)"/><path class="cls-1" d="M1052,687.16a9.78,9.78,0,0,1-7-2.59,9.6,9.6,0,0,1-2.83-7.21V658.18h-6V652.3h6V641.8h6.44v10.5h8.4v5.88h-8.4v17.08q0,3.43,1.33,4.66a4.34,4.34,0,0,0,3,1.22,6.83,6.83,0,0,0,1.5-.17,7.87,7.87,0,0,0,1.37-.46l2,5.74A17.21,17.21,0,0,1,1052,687.16Z" transform="translate(0 -26.8)"/><path class="cls-1" d="M1075.49,651.18q7.14,0,11.27,3.82t4.13,10.46V686.6h-6.16v-4.76h-.28a12.29,12.29,0,0,1-10.64,5.88,13.84,13.84,0,0,1-9.49-3.36,10.74,10.74,0,0,1-3.81-8.4,10.21,10.21,0,0,1,4-8.47q4-3.15,10.75-3.15a19,19,0,0,1,9.45,2.1V665a7.33,7.33,0,0,0-2.66-5.7,9.11,9.11,0,0,0-6.23-2.35,9.87,9.87,0,0,0-8.54,4.55l-5.67-3.57Q1066.31,651.18,1075.49,651.18Zm-8.33,24.92a5.15,5.15,0,0,0,2.13,4.2,7.85,7.85,0,0,0,5,1.68,10.24,10.24,0,0,0,7.24-3,9.44,9.44,0,0,0,3.19-7.07q-3-2.39-8.4-2.38a10.91,10.91,0,0,0-6.55,1.89A5.6,5.6,0,0,0,1067.16,676.1Z" transform="translate(0 -26.8)"/><path class="cls-1" d="M1106.5,640.47A4.54,4.54,0,0,1,1102,645a4.55,4.55,0,1,1,3.22-7.77A4.42,4.42,0,0,1,1106.5,640.47Zm-1.33,11.83v34.3h-6.44V652.3Z" transform="translate(0 -26.8)"/><path class="cls-1" d="M1113.57,652.3h6.16v4.76h.28a11.37,11.37,0,0,1,4.51-4.2,12.94,12.94,0,0,1,6.34-1.68q6.3,0,9.69,3.61t3.39,10.25V686.6h-6.43V665.46q-.23-8.4-8.48-8.4a8,8,0,0,0-6.43,3.12,11.25,11.25,0,0,0-2.59,7.45v19h-6.44Z" transform="translate(0 -26.8)"/><path class="cls-1" d="M1177.4,677.08a9.27,9.27,0,0,1-3.92,7.56,15.49,15.49,0,0,1-9.87,3.08,15.68,15.68,0,0,1-9.09-2.69,14.87,14.87,0,0,1-5.61-7.11l5.74-2.45a10.73,10.73,0,0,0,3.68,4.8,8.94,8.94,0,0,0,5.28,1.71,9.3,9.3,0,0,0,5.15-1.33,3.77,3.77,0,0,0,2.06-3.15c0-2.19-1.67-3.8-5-4.83l-5.88-1.47q-10-2.52-10-9.66a8.92,8.92,0,0,1,3.81-7.52,17.48,17.48,0,0,1,18-.67,11.85,11.85,0,0,1,5.15,5.81l-5.74,2.38a7.21,7.21,0,0,0-3.19-3.39,10,10,0,0,0-4.94-1.23,8.28,8.28,0,0,0-4.51,1.26,3.63,3.63,0,0,0-2,3.08q0,2.94,5.52,4.2l5.19,1.33Q1177.41,669.31,1177.4,677.08Z" transform="translate(0 -26.8)"/></g></g></svg>